# Blender 4.5.3 LTS
# www.blender.org
mtllib frigate.mtl
o Cube
v -1.500000 -1.000000 -0.666665
v 0.499999 1.000000 16.333334
v 1.500000 -1.000000 -0.666665
v -0.500001 1.000000 16.333334
v -1.500000 -1.000000 1.333334
v -1.500000 0.000000 6.333335
v 1.500000 -1.000000 1.333335
v 1.500000 0.000000 6.333335
v 0.499999 2.000000 16.333334
v -0.500001 2.000000 16.333334
v -4.500000 1.000000 6.333335
v -5.500000 1.000000 1.333334
v -3.500000 1.000000 1.333334
v -5.500000 1.000000 -0.666666
v -4.500000 2.000000 6.333335
v -8.500000 1.000000 -1.666666
v -8.500000 2.000000 -1.666666
v -5.500000 2.000000 1.333334
v -8.500000 1.000000 -2.666666
v -8.500000 2.000000 -2.666666
v -5.500000 2.000000 -3.666666
v -2.500000 1.000000 -5.666666
v -2.500000 2.000000 -5.666666
v -1.500000 1.000000 -6.666666
v -1.500000 2.000000 -6.666666
v 1.500000 1.000000 -6.666666
v 1.500000 2.000000 -6.666666
v -5.500000 1.000000 -3.666666
v -3.500000 1.000000 -0.666665
v -2.500000 1.000000 -3.666666
v -1.500000 1.000000 -5.666666
v 1.500000 1.000000 -5.666666
v 0.500000 3.000000 6.333335
v -0.500000 3.000000 6.333335
v -1.500000 3.000000 2.333335
v -1.500000 3.000000 -4.666666
v 1.500000 3.000000 -4.666666
v 0.500000 3.000000 2.333335
v -0.500000 3.000000 2.333335
v 0.500000 4.000000 0.333335
v -0.500000 4.000000 0.333335
v 0.500000 5.000000 0.333335
v -0.500000 5.000000 0.333335
v -3.500000 4.000000 -0.666665
v -0.500000 4.000000 -3.666666
v 0.500000 4.000000 -3.666666
v -0.500000 5.000000 -3.666666
v 0.500000 5.000000 -3.666666
v -3.500000 5.000000 -1.666666
v -3.500000 5.000000 -0.666665
v -3.500000 4.000000 -1.666666
v 4.500000 1.000000 6.333335
v 5.500000 1.000000 1.333335
v 3.500000 1.000000 1.333335
v 5.500000 1.000000 -0.666665
v 4.500000 2.000000 6.333335
v 8.500000 1.000000 -1.666665
v 8.500000 2.000000 -1.666665
v 5.500000 2.000000 1.333335
v 8.500000 1.000000 -2.666665
v 8.500000 2.000000 -2.666665
v 5.500000 1.000000 -3.666665
v 5.500000 2.000000 -3.666665
v 2.500000 1.000000 -5.666666
v 2.500000 2.000000 -5.666666
v 3.500000 1.000000 -0.666665
v 2.500000 1.000000 -3.666666
v 1.500000 3.000000 2.333335
v 3.500000 4.000000 -0.666665
v 3.500000 5.000000 -1.666665
v 3.500000 5.000000 -0.666665
v 3.500000 4.000000 -1.666665
vn -0.3137 -0.9412 0.1255
vn -0.0000 -0.9950 0.0995
vn -0.0000 -0.9806 0.1961
vn 0.3137 -0.9412 0.1255
vn -0.0000 -1.0000 -0.0000
vn -0.0000 -0.0000 1.0000
vn -0.7001 -0.7001 0.1400
vn -0.3156 -0.9468 -0.0631
vn -0.4472 -0.8944 -0.0000
vn -0.9285 -0.0000 0.3714
vn -0.9806 -0.0000 0.1961
vn -1.0000 -0.0000 -0.0000
vn -0.7071 -0.0000 0.7071
vn -0.3162 -0.0000 -0.9487
vn -0.5547 -0.0000 -0.8321
vn -0.7071 -0.0000 -0.7071
vn -0.0000 -0.0000 -1.0000
vn -0.6882 -0.6882 -0.2294
vn -0.5963 -0.7454 -0.2981
vn -0.0000 -0.9285 -0.3714
vn -0.0000 0.9950 0.0995
vn -0.2414 0.9656 0.0966
vn -0.2542 0.9658 0.0508
vn -0.2421 0.9684 0.0605
vn -0.0000 1.0000 -0.0000
vn -0.2425 0.9701 -0.0000
vn -0.3244 0.8111 -0.4867
vn -0.4082 0.8165 -0.4082
vn -0.0000 0.8944 -0.4472
vn -0.0000 0.8944 0.4472
vn -0.0000 0.7071 -0.7071
vn -0.3162 -0.0000 0.9487
vn -0.7071 0.7071 -0.0000
vn 0.7001 -0.7001 0.1400
vn 0.3156 -0.9468 -0.0631
vn 0.4472 -0.8944 -0.0000
vn 0.9285 -0.0000 0.3714
vn 0.9806 -0.0000 0.1961
vn 1.0000 -0.0000 -0.0000
vn 0.7071 -0.0000 0.7071
vn 0.3162 -0.0000 -0.9487
vn 0.5547 -0.0000 -0.8321
vn 0.7071 -0.0000 -0.7071
vn 0.6882 -0.6882 -0.2294
vn 0.5963 -0.7454 -0.2981
vn 0.2414 0.9656 0.0966
vn 0.2542 0.9658 0.0508
vn 0.2421 0.9684 0.0605
vn 0.2425 0.9701 -0.0000
vn 0.3244 0.8111 -0.4867
vn 0.4082 0.8165 -0.4082
vn 0.3162 -0.0000 0.9487
vn 0.7071 0.7071 -0.0000
vt 0.670358 0.776074
vt 0.540647 0.451796
vt 0.637930 0.451796
vt 0.702786 0.776074
vt 0.735214 0.451796
vt 0.637930 0.289658
vt 0.735214 0.289658
vt 0.832497 0.451796
vt 0.637930 0.224802
vt 0.735214 0.224802
vt 0.324124 0.933625
vt 0.363037 0.894712
vt 0.363037 0.933625
vt 0.129557 0.894712
vt 0.285210 0.816885
vt 0.207384 0.894712
vt 0.573075 0.289658
vt 0.508219 0.289658
vt 0.508219 0.224802
vt 0.168471 0.933625
vt 0.324124 0.894712
vt 0.168471 0.894712
vt 0.129557 0.933625
vt 0.882506 0.821834
vt 0.914934 0.789406
vt 0.914934 0.821834
vt 0.012818 0.894712
vt 0.850078 0.821834
vt 0.882506 0.789406
vt 0.785223 0.821834
vt 0.850078 0.789406
vt 0.752795 0.821834
vt 0.785223 0.789406
vt 0.845806 0.520061
vt 0.943089 0.487633
vt 0.943089 0.520061
vt 0.410936 0.159947
vt 0.508219 0.127519
vt 0.410936 0.192375
vt 0.997098 0.393182
vt 0.932243 0.393182
vt 0.867387 0.328326
vt 0.605503 0.127519
vt 0.573075 0.224802
vt 0.637930 0.062664
vt 0.735214 0.062664
vt 0.605503 0.062664
vt 0.637930 0.030236
vt 0.735214 0.030236
vt 0.302398 0.019077
vt 0.269971 0.343354
vt 0.269971 0.019077
vt 0.140260 0.343354
vt 0.107832 0.505493
vt 0.237543 0.473065
vt 0.010549 0.602776
vt 0.107832 0.667631
vt 0.010549 0.635203
vt 0.237543 0.700059
vt 0.205115 0.732487
vt 0.237543 0.764914
vt 0.334826 0.764914
vt 0.334826 0.700059
vt 0.302398 0.343354
vt 0.269971 0.473065
vt 0.302398 0.473065
vt 0.269971 0.537920
vt 0.363037 0.938223
vt 0.324124 0.977136
vt 0.324124 0.938223
vt 0.302398 0.667631
vt 0.986252 0.520061
vt 0.953824 0.487634
vt 0.986252 0.487634
vt 0.207384 0.938223
vt 0.207384 0.977136
vt 0.885943 0.846690
vt 0.853516 0.879118
vt 0.853516 0.846690
vt 0.788660 0.879118
vt 0.788660 0.846690
vt 0.470969 0.682970
vt 0.470969 0.790218
vt 0.390534 0.736594
vt 0.390534 0.763406
vt 0.269971 0.667631
vt 0.103427 0.871067
vt 0.006143 0.806211
vt 0.006143 0.773783
vt 0.103427 0.741356
vt 0.557603 0.894712
vt 0.479777 0.894712
vt 0.401950 0.816885
vt 0.800069 0.289658
vt 0.864924 0.289658
vt 0.864924 0.224802
vt 0.518690 0.933625
vt 0.557603 0.933625
vt 0.518690 0.894712
vt 0.571598 0.790587
vt 0.604026 0.823015
vt 0.571598 0.823015
vt 0.674343 0.894712
vt 0.604026 0.790587
vt 0.636453 0.823015
vt 0.636453 0.790587
vt 0.701309 0.823015
vt 0.701309 0.790587
vt 0.733737 0.823015
vt 0.864924 0.127519
vt 0.962208 0.159947
vt 0.962208 0.192375
vt 0.853904 0.468773
vt 0.983614 0.403917
vt 0.918759 0.468773
vt 0.767641 0.127519
vt 0.800069 0.224802
vt 0.767641 0.062664
vt 0.432109 0.343354
vt 0.464537 0.505493
vt 0.334826 0.473065
vt 0.561820 0.602776
vt 0.464537 0.667631
vt 0.367254 0.732487
vt 0.302398 0.537920
vt 0.363037 0.977136
vt 0.479777 0.938223
vt 0.479777 0.977136
vt 0.708606 0.879118
vt 0.676178 0.846690
vt 0.708606 0.846690
vt 0.773462 0.879118
vt 0.773462 0.846690
vt 0.497781 0.682970
vt 0.578216 0.736594
vt 0.497781 0.790218
vt 0.578216 0.763406
vt 0.135854 0.871067
vt 0.233138 0.773783
vt 0.233138 0.806211
vt 0.135854 0.741356
vt 0.012818 0.933625
vt 0.752795 0.789406
vt 0.845806 0.487633
vt 0.953824 0.520061
vt 0.885943 0.879118
vt 0.674343 0.933625
vt 0.733737 0.790587
vt 0.561820 0.635203
vt 0.676178 0.879118
s 0
usemtl Material.001
f 4/1/1 11/2/1 6/3/1
f 6/3/2 2/4/2 4/1/2
f 8/5/3 5/6/3 7/7/3
f 2/4/4 8/5/4 52/8/4
f 7/7/5 1/9/5 3/10/5
f 10/11/6 2/12/6 9/13/6
f 12/14/6 5/15/6 13/16/6
f 6/3/7 13/17/7 5/6/7
f 12/18/5 13/17/5 11/2/5
f 11/2/8 13/17/8 6/3/8
f 1/9/9 12/18/9 14/19/9
f 15/20/10 4/21/10 10/11/10
f 11/22/11 18/23/11 12/14/11
f 20/24/12 16/25/12 17/26/12
f 18/23/13 16/27/13 12/14/13
f 21/28/14 19/29/14 20/24/14
f 23/30/15 28/31/15 21/28/15
f 25/32/16 22/33/16 23/30/16
f 27/34/17 24/35/17 25/36/17
f 14/19/5 19/37/5 28/38/5
f 19/37/5 14/19/5 16/39/5
f 16/39/5 14/19/5 12/18/5
f 14/40/17 29/41/17 1/42/17
f 30/43/5 29/44/5 28/38/5
f 28/38/5 29/44/5 14/19/5
f 29/44/18 30/43/18 1/9/18
f 30/43/19 31/45/19 1/9/19
f 3/10/20 31/45/20 32/46/20
f 22/47/5 24/48/5 31/45/5
f 30/43/5 28/38/5 22/47/5
f 30/43/5 22/47/5 31/45/5
f 32/46/5 24/48/5 26/49/5
f 9/50/21 34/51/21 10/52/21
f 10/52/22 34/51/22 15/53/22
f 18/54/23 15/53/23 35/55/23
f 34/51/24 35/55/24 15/53/24
f 17/56/25 21/57/25 20/58/25
f 36/59/26 21/57/26 35/55/26
f 35/55/26 21/57/26 18/54/26
f 21/57/27 36/59/27 23/60/27
f 23/60/28 36/59/28 25/61/28
f 27/62/29 36/59/29 37/63/29
f 33/64/25 39/65/25 34/51/25
f 34/51/25 39/65/25 35/55/25
f 38/66/30 41/67/30 39/65/30
f 40/68/6 43/69/6 41/70/6
f 39/65/30 41/67/30 35/55/30
f 36/59/31 46/71/31 37/63/31
f 47/72/17 46/73/17 45/74/17
f 44/75/32 43/69/32 50/76/32
f 44/77/12 49/78/12 51/79/12
f 51/79/15 47/80/15 45/81/15
f 45/82/5 41/83/5 51/84/5
f 41/83/5 44/85/5 51/84/5
f 36/59/33 35/55/33 41/67/33
f 45/86/33 36/59/33 41/67/33
f 47/87/25 49/88/25 50/89/25
f 50/89/25 43/90/25 47/87/25
f 53/91/6 54/92/6 7/93/6
f 8/5/34 7/7/34 54/94/34
f 53/95/5 52/8/5 54/94/5
f 52/8/35 8/5/35 54/94/35
f 53/95/36 3/10/36 55/96/36
f 2/12/37 56/97/37 9/13/37
f 59/98/38 52/99/38 53/91/38
f 57/100/39 61/101/39 58/102/39
f 57/103/40 59/98/40 53/91/40
f 60/104/41 63/105/41 61/101/41
f 62/106/42 65/107/42 63/105/42
f 64/108/43 27/109/43 65/107/43
f 55/96/5 62/110/5 60/111/5
f 60/111/5 57/112/5 55/96/5
f 57/112/5 53/95/5 55/96/5
f 55/113/17 3/114/17 66/115/17
f 67/116/5 62/110/5 66/117/5
f 62/110/5 55/96/5 66/117/5
f 66/117/44 3/10/44 67/116/44
f 67/116/45 3/10/45 32/46/45
f 64/118/5 32/46/5 26/49/5
f 67/116/5 64/118/5 62/110/5
f 67/116/5 32/46/5 64/118/5
f 9/50/46 56/119/46 33/64/46
f 59/120/47 68/121/47 56/119/47
f 33/64/48 56/119/48 68/121/48
f 58/122/25 63/123/25 59/120/25
f 37/63/49 68/121/49 63/123/49
f 68/121/49 59/120/49 63/123/49
f 63/123/50 65/124/50 37/63/50
f 65/124/51 27/62/51 37/63/51
f 33/64/25 68/121/25 38/66/25
f 38/66/30 68/121/30 40/125/30
f 42/126/52 69/127/52 71/128/52
f 70/129/39 69/130/39 72/131/39
f 48/132/42 72/131/42 46/133/42
f 46/134/5 72/135/5 40/136/5
f 40/136/5 72/135/5 69/137/5
f 37/63/53 40/125/53 68/121/53
f 46/71/53 40/125/53 37/63/53
f 48/138/25 71/139/25 70/140/25
f 71/139/25 48/138/25 42/141/25
f 48/138/25 43/90/25 42/141/25
f 6/3/2 8/5/2 2/4/2
f 8/5/3 6/3/3 5/6/3
f 7/7/5 5/6/5 1/9/5
f 10/11/6 4/21/6 2/12/6
f 1/9/9 5/6/9 12/18/9
f 15/20/10 11/22/10 4/21/10
f 11/22/11 15/20/11 18/23/11
f 20/24/12 19/29/12 16/25/12
f 18/23/13 17/142/13 16/27/13
f 21/28/14 28/31/14 19/29/14
f 23/30/15 22/33/15 28/31/15
f 25/32/16 24/143/16 22/33/16
f 27/34/17 26/144/17 24/35/17
f 3/10/20 1/9/20 31/45/20
f 32/46/5 31/45/5 24/48/5
f 9/50/21 33/64/21 34/51/21
f 17/56/25 18/54/25 21/57/25
f 27/62/29 25/61/29 36/59/29
f 33/64/25 38/66/25 39/65/25
f 38/66/30 40/125/30 41/67/30
f 40/68/6 42/126/6 43/69/6
f 36/59/31 45/86/31 46/71/31
f 47/72/17 48/145/17 46/73/17
f 44/75/32 41/70/32 43/69/32
f 44/77/12 50/146/12 49/78/12
f 51/79/15 49/78/15 47/80/15
f 53/95/36 7/7/36 3/10/36
f 2/12/37 52/99/37 56/97/37
f 59/98/38 56/97/38 52/99/38
f 57/100/39 60/104/39 61/101/39
f 57/103/40 58/147/40 59/98/40
f 60/104/41 62/106/41 63/105/41
f 62/106/42 64/108/42 65/107/42
f 64/108/43 26/148/43 27/109/43
f 58/122/25 61/149/25 63/123/25
f 42/126/52 40/68/52 69/127/52
f 70/129/39 71/150/39 69/130/39
f 48/132/42 70/129/42 72/131/42
f 48/138/25 47/87/25 43/90/25
