# Blender 4.5.3 LTS
# www.blender.org
mtllib simple_turret_base.mtl
o Plane
v -2.000000 0.000000 2.000000
v 2.000000 0.000000 2.000000
v -2.000000 0.000000 -3.000000
v 2.000000 0.000000 -3.000000
v -2.000000 3.000000 -1.000000
v 2.000000 3.000000 -1.000000
v -2.000000 3.000000 2.000000
v 2.000000 3.000000 2.000000
vn -0.0000 -1.0000 -0.0000
vn -0.0000 0.5547 -0.8321
vn -0.0000 -0.0000 1.0000
vn -0.0000 1.0000 -0.0000
vn 1.0000 -0.0000 -0.0000
vn -1.0000 -0.0000 -0.0000
vt 0.900980 0.397066
vt 0.601020 0.397066
vt 0.601020 0.022115
vt 0.606209 0.988649
vt 0.908095 0.638947
vt 0.908095 0.988649
vt 0.606209 0.638947
vt 0.503949 0.006112
vt 0.503949 0.351624
vt 0.043267 0.006112
vt 0.043267 0.351624
vt 0.908095 0.412532
vt 0.606209 0.412532
vt 0.544071 0.680570
vt 0.336812 0.991458
vt 0.025924 0.680570
vt 0.552052 0.670092
vt 0.241164 0.670092
vt 0.552052 0.359203
vt 0.033905 0.359203
vt 0.025924 0.991458
vt 0.900980 0.022115
s 0
usemtl Material.001
f 2/1/1 1/2/1 3/3/1
f 3/4/2 6/5/2 4/6/2
f 5/7/2 6/5/2 3/4/2
f 2/8/3 8/9/3 1/10/3
f 7/11/3 1/10/3 8/9/3
f 8/12/4 6/5/4 7/13/4
f 6/5/4 5/7/4 7/13/4
f 4/14/5 6/15/5 2/16/5
f 7/17/6 5/18/6 1/19/6
f 1/19/6 5/18/6 3/20/6
f 8/21/5 2/16/5 6/15/5
f 2/1/1 3/3/1 4/22/1
