# Blender 4.5.3 LTS
# www.blender.org
mtllib simple_turret_barrel.mtl
o Cylinder
v -0.236584 0.000000 0.000000
v -0.250000 0.000000 2.000000
v -0.118292 0.204888 0.000000
v -0.125000 0.216506 2.000000
v 0.118292 0.204888 0.000000
v 0.125000 0.216506 2.000000
v 0.236584 0.000000 0.000000
v 0.250000 0.000000 2.000000
v 0.118292 -0.204888 0.000000
v 0.125000 -0.216506 2.000000
v -0.118292 -0.204888 0.000000
v -0.125000 -0.216506 2.000000
v -0.250000 0.000000 0.000000
v -0.125000 0.216506 0.000000
v 0.125000 0.216506 0.000000
v 0.250000 0.000000 0.000000
v 0.125000 -0.216506 0.000000
v -0.125000 -0.216506 0.000000
v -0.236584 0.000000 -2.000000
v -0.118292 0.204888 -2.000000
v 0.118292 0.204888 -2.000000
v 0.236584 0.000000 -2.000000
v 0.118292 -0.204888 -2.000000
v -0.118292 -0.204888 -2.000000
vn -0.8660 0.5000 -0.0000
vn -0.0000 1.0000 -0.0000
vn 0.8660 0.5000 -0.0000
vn 0.8660 -0.5000 -0.0000
vn -0.0000 -0.0000 1.0000
vn -0.0000 -1.0000 -0.0000
vn -0.8660 -0.5000 -0.0000
vn -0.0000 -0.0000 -1.0000
vt 1.000000 0.500000
vt 1.000000 1.000000
vt 0.833333 1.000000
vt 0.833333 0.500000
vt 0.666667 1.000000
vt 0.666667 0.500000
vt 0.500000 1.000000
vt 0.500000 0.500000
vt 0.333333 1.000000
vt 0.333333 0.500000
vt 0.457846 0.370000
vt 0.250000 0.490000
vt 0.042154 0.370000
vt 0.042154 0.130000
vt 0.250000 0.010000
vt 0.457846 0.130000
vt 0.166667 1.000000
vt 0.166667 0.500000
vt -0.000000 1.000000
vt -0.000000 0.500000
vt 0.553308 0.363560
vt 0.750000 0.477121
vt 0.946693 0.363560
vt 0.750000 0.490000
vt 0.957846 0.370000
vt 0.946692 0.136440
vt 0.957846 0.130000
vt 0.750000 0.022879
vt 0.750000 0.010000
vt 0.553308 0.136440
vt 0.542154 0.130000
vt 0.542154 0.370000
s 0
f 13/1/1 2/2/1 4/3/1 14/4/1
f 14/4/2 4/3/2 6/5/2 15/6/2
f 15/6/3 6/5/3 8/7/3 16/8/3
f 16/8/4 8/7/4 10/9/4 17/10/4
f 4/11/5 2/12/5 12/13/5 10/14/5 8/15/5 6/16/5
f 17/10/6 10/9/6 12/17/6 18/18/6
f 18/18/7 12/17/7 2/19/7 13/20/7
f 11/21/7 1/22/7 19/22/7 24/21/7
f 3/23/8 1/22/8 13/24/8 14/25/8
f 5/26/8 3/23/8 14/25/8 15/27/8
f 7/28/8 5/26/8 15/27/8 16/29/8
f 9/30/8 7/28/8 16/29/8 17/31/8
f 11/21/8 9/30/8 17/31/8 18/32/8
f 1/22/8 11/21/8 18/32/8 13/24/8
f 19/22/8 20/23/8 21/26/8 22/28/8 23/30/8 24/21/8
f 7/28/4 9/30/4 23/30/4 22/28/4
f 3/23/2 5/26/2 21/26/2 20/23/2
f 9/30/6 11/21/6 24/21/6 23/30/6
f 5/26/3 7/28/3 22/28/3 21/26/3
f 1/22/1 3/23/1 20/23/1 19/22/1
